<mxfile host="app.diagrams.net" agent="Mozilla/5.0 (Macintosh; Intel Mac OS X 10_15_7) AppleWebKit/605.1.15 (KHTML, like Gecko) Version/17.6 Safari/605.1.15" version="24.7.16">
  <diagram name="Страница — 1" id="-1IM5cx0t6x9WSvbNLhL">
    <mxGraphModel dx="2049" dy="1186" grid="1" gridSize="10" guides="1" tooltips="1" connect="1" arrows="1" fold="1" page="1" pageScale="1" pageWidth="827" pageHeight="1169" math="0" shadow="0">
      <root>
        <mxCell id="0" />
        <mxCell id="1" parent="0" />
        <mxCell id="OoqZ8IV61jZ-zZDGYfF--1" value="Цель:&amp;nbsp;" style="text;html=1;align=left;verticalAlign=middle;whiteSpace=wrap;rounded=0;" vertex="1" parent="1">
          <mxGeometry x="50" y="40" width="330" height="30" as="geometry" />
        </mxCell>
        <mxCell id="OoqZ8IV61jZ-zZDGYfF--4" value="" style="edgeStyle=orthogonalEdgeStyle;rounded=0;orthogonalLoop=1;jettySize=auto;html=1;" edge="1" parent="1" source="OoqZ8IV61jZ-zZDGYfF--2" target="OoqZ8IV61jZ-zZDGYfF--3">
          <mxGeometry relative="1" as="geometry" />
        </mxCell>
        <mxCell id="OoqZ8IV61jZ-zZDGYfF--2" value="Анализ текущих процессов AS IS" style="rounded=1;whiteSpace=wrap;html=1;" vertex="1" parent="1">
          <mxGeometry x="110" y="330" width="120" height="60" as="geometry" />
        </mxCell>
        <mxCell id="OoqZ8IV61jZ-zZDGYfF--6" value="" style="edgeStyle=orthogonalEdgeStyle;rounded=0;orthogonalLoop=1;jettySize=auto;html=1;" edge="1" parent="1" source="OoqZ8IV61jZ-zZDGYfF--3" target="OoqZ8IV61jZ-zZDGYfF--5">
          <mxGeometry relative="1" as="geometry" />
        </mxCell>
        <mxCell id="OoqZ8IV61jZ-zZDGYfF--3" value="Зафиксировать будущие процессы TO BE" style="rounded=1;whiteSpace=wrap;html=1;" vertex="1" parent="1">
          <mxGeometry x="110" y="470" width="120" height="60" as="geometry" />
        </mxCell>
        <mxCell id="OoqZ8IV61jZ-zZDGYfF--8" value="" style="edgeStyle=orthogonalEdgeStyle;rounded=0;orthogonalLoop=1;jettySize=auto;html=1;" edge="1" parent="1" source="OoqZ8IV61jZ-zZDGYfF--5" target="OoqZ8IV61jZ-zZDGYfF--7">
          <mxGeometry relative="1" as="geometry" />
        </mxCell>
        <mxCell id="OoqZ8IV61jZ-zZDGYfF--5" value="Выявить истинную проблему" style="rounded=1;whiteSpace=wrap;html=1;" vertex="1" parent="1">
          <mxGeometry x="310" y="470" width="120" height="60" as="geometry" />
        </mxCell>
        <mxCell id="OoqZ8IV61jZ-zZDGYfF--10" value="" style="edgeStyle=orthogonalEdgeStyle;rounded=0;orthogonalLoop=1;jettySize=auto;html=1;" edge="1" parent="1" source="OoqZ8IV61jZ-zZDGYfF--7" target="OoqZ8IV61jZ-zZDGYfF--9">
          <mxGeometry relative="1" as="geometry" />
        </mxCell>
        <mxCell id="OoqZ8IV61jZ-zZDGYfF--13" value="" style="edgeStyle=orthogonalEdgeStyle;rounded=0;orthogonalLoop=1;jettySize=auto;html=1;" edge="1" parent="1" source="OoqZ8IV61jZ-zZDGYfF--7" target="OoqZ8IV61jZ-zZDGYfF--12">
          <mxGeometry relative="1" as="geometry" />
        </mxCell>
        <mxCell id="OoqZ8IV61jZ-zZDGYfF--15" value="" style="edgeStyle=orthogonalEdgeStyle;rounded=0;orthogonalLoop=1;jettySize=auto;html=1;" edge="1" parent="1" source="OoqZ8IV61jZ-zZDGYfF--7" target="OoqZ8IV61jZ-zZDGYfF--14">
          <mxGeometry relative="1" as="geometry" />
        </mxCell>
        <mxCell id="OoqZ8IV61jZ-zZDGYfF--7" value="Найти специалистов для консультации" style="rounded=1;whiteSpace=wrap;html=1;" vertex="1" parent="1">
          <mxGeometry x="510" y="470" width="120" height="60" as="geometry" />
        </mxCell>
        <mxCell id="OoqZ8IV61jZ-zZDGYfF--9" value="1С" style="rounded=1;whiteSpace=wrap;html=1;" vertex="1" parent="1">
          <mxGeometry x="430" y="330" width="120" height="60" as="geometry" />
        </mxCell>
        <mxCell id="OoqZ8IV61jZ-zZDGYfF--12" value="Логистика, склад" style="rounded=1;whiteSpace=wrap;html=1;" vertex="1" parent="1">
          <mxGeometry x="620" y="330" width="120" height="60" as="geometry" />
        </mxCell>
        <mxCell id="OoqZ8IV61jZ-zZDGYfF--14" value="Декомпозировать задачи для разработки" style="rounded=1;whiteSpace=wrap;html=1;" vertex="1" parent="1">
          <mxGeometry x="510" y="610" width="120" height="60" as="geometry" />
        </mxCell>
      </root>
    </mxGraphModel>
  </diagram>
</mxfile>
